<svg width="100" height="100" xmlns="http://www.w3.org/2000/svg" fill="none">
 <!-- Add white background rectangle -->
 <defs>
  <clipPath id="clip0_1_3">
   <rect id="svg_1" fill="white" height="57.6" width="180"/>
  </clipPath>
 </defs>
 <g>
  <title>Layer 1</title>
  <rect stroke="null" x="-6.39175" y="9.89691" id="svg_2" fill="white" height="82.74227" width="180"/>
  <g id="svg_3" clip-path="url(#clip0_1_3)">
   <path id="svg_4" fill="#175CD3" d="m37.00192,25.8804l-10.665,0l0,-3.2724c0,-1.53 -0.135,-2.4984 -0.4104,-2.9196c-0.27,-0.4176 -0.7272,-0.63 -1.3644,-0.63c-0.6912,0 -1.2132,0.2826 -1.566,0.8478c-0.3546,0.5652 -0.5328,1.4184 -0.5328,2.565c0,1.4724 0.1998,2.5848 0.5976,3.33c0.3834,0.7452 1.4634,1.647 3.2454,2.7c5.112,3.0348 8.3304,5.5242 9.657,7.47c1.3266,1.944 1.989,5.0832 1.989,9.4104c0,3.1464 -0.3654,5.4648 -1.1052,6.957c-0.7362,1.4904 -2.16,2.7414 -4.266,3.7494c-2.1114,1.008 -4.5666,1.512 -7.3656,1.512c-3.0744,0 -5.6952,-0.5796 -7.8696,-1.746c-2.1726,-1.1628 -3.5946,-2.6442 -4.266,-4.446c-0.675,-1.8 -1.008,-4.3524 -1.008,-7.6626l0,-2.8908l10.6632,0l0,5.373c0,1.656 0.153,2.7216 0.45,3.1914c0.2988,0.4734 0.8298,0.7074 1.5948,0.7074c0.765,0 1.332,-0.3006 1.7064,-0.9c0.3726,-0.5994 0.558,-1.4904 0.558,-2.673c0,-2.5992 -0.3528,-4.3002 -1.0638,-5.0976c-0.7272,-0.7992 -2.5182,-2.1366 -5.3748,-4.0104c-2.8548,-1.89 -4.7448,-3.2634 -5.6736,-4.1184c-0.9252,-0.8532 -1.6956,-2.034 -2.3022,-3.546c-0.6102,-1.5084 -0.9126,-3.4362 -0.9126,-5.7798c0,-3.384 0.432,-5.8536 1.296,-7.4178c0.8604,-1.5642 2.2572,-2.7864 4.185,-3.6684c1.926,-0.882 4.2552,-1.323 6.9822,-1.323c2.9808,0 5.5206,0.4824 7.6212,1.4472c2.1024,0.963 3.492,2.1762 4.1742,3.6414c0.6822,1.4634 1.0242,3.9528 1.0242,7.4592l0.0018,1.7406zm24.4044,-14.1768l-16.5942,0l-5.8572,45.8082l11.8728,0l0.6912,-13.3596l4.1076,0l0.6156,13.3596l11.736,0l-6.57,-45.8082l-0.0018,0zm-10.0872,25.578l2.1654,-14.5008l2.1636,14.499l-4.329,0.0018z"/>
   <path id="svg_5" fill="#18418A" d="m21.77392,7.59419c-3.0366,-0.756 -12.1878,5.50261 -12.8988,7.90201c0.1512,2.4984 3.1554,4.518 3.1554,4.518c0,0 -0.432,0.8136 6.786,-3.636c7.218,-4.446 6.0876,-4.9734 6.0876,-4.9734c0,0 -1.4526,-3.39121 -3.1302,-3.81061z"/>
   <path id="svg_6" fill="#212B55" d="m19.12612,7.6968c-3.9798,1.3356 -9.9792,5.7564 -10.5534,7.6914c0.09,1.4832 1.476,4.6944 3.4452,4.6944c0.117,-0.0018 0.9036,-0.1674 1.1628,-0.5868c1.5984,-2.1204 5.544,-19.0944 5.9454,-11.799z"/>
   <path id="svg_7" fill="#233770" d="m18.52132,12.258l9.4968,-12.258l-19.6326,5.8914l-8.66159,13.8078l18.79739,-7.4412z"/>
   <path id="svg_8" fill="#212B55" d="m28.01812,0l-9.4968,12.258l-18.79739,7.4394l0.2052,0.5274l18.79739,-7.4376l9.4968,-12.258l-0.2052,-0.5292z"/>
   <path id="svg_9" fill="#F6A019" d="m12.14572,7.24141c-0.0504,0.0216 -0.0882,0.0504 -0.1314,0.0756c-0.211,-0.02227 -0.4233,-0.03069 -0.6354,-0.0252c-1.431,-0.0036 -4.14899,0.4806 -5.47199,3.59099c-0.9504,2.2374 -0.5868,3.7944 -0.2898,5.0454c0.2556,1.08 0.4392,1.8648 -0.342,2.6784c-0.7236,0.756 -1.4094,1.0062 -2.0754,1.2492c-0.9324,0.342 -1.8108,0.6606 -2.3508,2.34l0.423,0.1368c0.4752,-1.476 1.1826,-1.7352 2.079,-2.061c0.6804,-0.2466 1.4508,-0.531 2.2428,-1.3572c0.9486,-0.99 0.72,-1.962 0.4554,-3.0906c-0.2808,-1.188 -0.63,-2.6658 0.27,-4.77c1.044,-2.45519 3.03839,-3.10139 4.42799,-3.23819c0.2466,-0.0252 0.4392,-0.0216 0.603,-0.009c-0.4806,0.4986 -0.603,1.0638 -0.5148,1.3806c0,0 1.7442,-0.2664 3.7152,-1.8792c-0.0036,0.0054 -0.8316,-0.8154 -2.4048,-0.0666z"/>
   <path id="svg_10" fill="#F6A019" d="m1.14951,22.869c0.3546,-0.054 0.6012,-0.3636 0.549,-0.6948c-0.0504,-0.333 -0.3744,-0.558 -0.729,-0.504c-0.3546,0.054 -0.5994,0.3636 -0.549,0.6966c0.0468,0.3312 0.3762,0.5562 0.729,0.5022z"/>
   <path id="svg_11" fill="#F6A019" d="m1.59592,22.383c-1.0998,-0.3204 -2.025,0.5832 -2.5128,1.6416c-0.6948,1.5174 -0.909,2.8476 -0.5832,3.2508c0.324,0.405 0.909,-0.585 1.0764,-0.8154c0,0 0.0378,1.6776 0.5148,1.6092c0.4806,-0.0702 0.7686,-1.233 0.7686,-1.233c0,0 0.198,1.1034 0.6624,1.2042c0.4608,0.1008 0.4518,-1.3806 0.4518,-1.3806c0,0 0.36,1.3806 1.0152,1.044c0.6534,-0.342 -0.2952,-5.004 -1.3932,-5.3208z"/>
   <path id="svg_12" fill="#175CD3" d="m94.24552,32.7204l0,24.849l-4.6512,-0.0054l-0.7254,-1.386c-2.0628,0.9054 -4.536,1.3572 -7.4286,1.3572c-2.7288,0 -5.0544,-0.441 -6.9804,-1.323c-1.926,-0.882 -3.3246,-2.1042 -4.1868,-3.6684c-0.5184,-0.936 -0.8784,-2.1978 -1.0872,-3.7872c-0.09,-0.7236 -0.1566,-1.512 -0.1854,-2.3724l0,-23.5602c0.0288,-0.7866 0.0828,-1.5156 0.1638,-2.1888c0.2034,-1.674 0.5724,-2.997 1.1088,-3.9708c0.864,-1.5642 2.259,-2.7864 4.1868,-3.6684c1.926,-0.882 4.2552,-1.3194 6.9804,-1.3194c2.9826,0 5.5224,0.4824 7.623,1.4472c2.0988,0.963 3.492,2.1762 4.1742,3.6414c0.5868,1.26 0.9216,3.2832 1.0008,6.0624l0.0036,0.1134c0.0252,0.4968 0.0216,0.9144 0.0216,1.4688l0,1.467l-10.665,0l0,-2.745l-0.0036,-0.3042l0,-0.1332c0,-1.5282 -0.135,-2.502 -0.4068,-2.9178c-0.2718,-0.4176 -0.7272,-0.63 -1.3644,-0.63c-0.693,0 -1.2132,0.2862 -1.566,0.846c-0.324,0.513 -0.5004,1.2618 -0.5292,2.25c-0.0058,0.1932 -0.0058,0.3864 0,0.5796l0,23.5566c-0.0079,0.1925 -0.0079,0.3853 0,0.5778c0.0288,0.99 0.2052,1.7406 0.5274,2.25c0.3546,0.5652 0.8748,0.846 1.566,0.846c0.639,0 1.0908,-0.2088 1.3662,-0.6282c0.2754,-0.4176 0.4068,-1.3896 0.4068,-2.9196l0,-6.8616l-2.088,0l0,-6.9336l12.7386,0l0,0.0108z"/>
   <path id="svg_13" fill="#233770" d="m116.56052,23.5098c-0.859,0 -1.624,-0.1674 -2.294,-0.5022c-0.642,-0.3144 -1.219,-0.746 -1.702,-1.2726l0.538,-0.5724c0.428,0.477 0.943,0.864 1.541,1.1574c0.597,0.2934 1.234,0.4374 1.917,0.4374c0.907,0 1.623,-0.2196 2.152,-0.6624c0.522,-0.4428 0.789,-1.0116 0.789,-1.7028c0,-0.4896 -0.094,-0.8856 -0.288,-1.1808c-0.194,-0.302 -0.454,-0.5562 -0.76,-0.7434c-0.342,-0.2089 -0.699,-0.3912 -1.069,-0.5454l-1.791,-0.8064c-0.366,-0.1737 -0.723,-0.3678 -1.067,-0.5814c-0.377,-0.2348 -0.701,-0.5456 -0.951,-0.9126c-0.255,-0.3762 -0.385,-0.8568 -0.385,-1.4436c0,-0.5724 0.148,-1.0782 0.448,-1.512c0.301,-0.4374 0.708,-0.7794 1.23,-1.0224c0.516,-0.243 1.108,-0.3654 1.764,-0.3654c0.705,0 1.337,0.1386 1.899,0.4194c0.563,0.2808 1.02,0.612 1.38,0.9954l-0.464,0.5364c-0.351,-0.3602 -0.764,-0.6541 -1.219,-0.8676c-0.5,-0.229 -1.045,-0.3428 -1.595,-0.333c-0.777,0 -1.405,0.1926 -1.89,0.5724c-0.234,0.1809 -0.422,0.4149 -0.548,0.6828c-0.126,0.268 -0.187,0.562 -0.177,0.858c0,0.4554 0.108,0.8262 0.331,1.1124c0.222,0.288 0.49,0.522 0.805,0.6984c0.317,0.18 0.619,0.3348 0.903,0.4644l1.791,0.7902c0.443,0.1926 0.85,0.414 1.226,0.6732c0.378,0.2556 0.684,0.576 0.913,0.9666c0.234,0.3888 0.351,0.8874 0.351,1.4976c0,0.5958 -0.155,1.1358 -0.465,1.62c-0.309,0.4842 -0.748,0.864 -1.317,1.1376c-0.567,0.2736 -1.231,0.4068 -1.996,0.4068zm8.798,-0.2142l0,-11.0916l-3.762,0l0,-0.7164l8.35,0l0,0.7164l-3.762,0l0,11.0916l-0.826,0zm10.631,0.216c-0.504,0 -0.99,-0.0756 -1.46,-0.225c-0.478,-0.1526 -0.914,-0.4131 -1.274,-0.7614c-0.377,-0.3564 -0.675,-0.8442 -0.897,-1.458c-0.221,-0.6174 -0.331,-1.386 -0.331,-2.304l0,-7.2756l0.824,0l0,7.182c0,1.0404 0.144,1.8594 0.44,2.4552c0.293,0.5976 0.678,1.0188 1.155,1.2636c0.477,0.2466 0.992,0.3672 1.543,0.3672c0.574,0 1.105,-0.1224 1.595,-0.3672c0.489,-0.243 0.883,-0.666 1.18,-1.2636c0.301,-0.5958 0.45,-1.4148 0.45,-2.4534l0,-7.1838l0.771,0l0,7.2756c0,0.918 -0.112,1.6866 -0.333,2.304c-0.222,0.6138 -0.519,1.1016 -0.897,1.458c-0.376,0.3564 -0.802,0.612 -1.278,0.7614c-0.482,0.1498 -0.985,0.2256 -1.49,0.225l0.002,0zm7.432,-0.216l0,-11.808l2.743,0c1.219,0 2.22,0.243 3.01,0.7272c0.79,0.4824 1.377,1.161 1.766,2.034c0.388,0.8712 0.581,1.9044 0.581,3.0978c0,1.1952 -0.193,2.2374 -0.581,3.1284c-0.389,0.891 -0.976,1.584 -1.764,2.079c-0.792,0.495 -1.786,0.7416 -2.994,0.7416l-2.761,0zm0.824,-0.6984l1.831,0c1.073,0 1.948,-0.2232 2.624,-0.6714c0.675,-0.45 1.172,-1.0692 1.489,-1.854c0.315,-0.792 0.473,-1.6974 0.473,-2.7252c0,-1.026 -0.158,-1.926 -0.473,-2.6964c-0.294,-0.7446 -0.815,-1.3781 -1.489,-1.8108c-0.676,-0.4356 -1.551,-0.6534 -2.626,-0.6534l-1.829,0l0,10.4112zm11.844,0.7002l0,-4.7826l-3.528,-7.0218l0.877,0l1.791,3.69c0.203,0.4284 0.409,0.8532 0.612,1.2726c0.2,0.4176 0.414,0.846 0.643,1.2888l0.072,0l0.666,-1.2888c0.212,-0.4176 0.414,-0.8442 0.608,-1.2726l1.791,-3.69l0.844,0l-3.548,7.0218l0,4.7826l-0.828,0zm-44.451,17.0406l3.654,-11.682l3.172,0l3.654,11.682l-2.794,0l-0.718,-2.7756l-3.566,0l-0.718,2.7774l-2.685,0l0.001,-0.0018zm4.227,-5.913l-0.288,1.0746l2.489,0l-0.27,-1.0746c-0.153,-0.585 -0.311,-1.206 -0.471,-1.863c-0.162,-0.657 -0.321,-1.2888 -0.476,-1.899l-0.072,0c-0.142,0.6228 -0.291,1.2564 -0.439,1.908c-0.149,0.6498 -0.306,1.2708 -0.473,1.854zm7.526,5.913l0,-11.682l3.996,0c0.811,0 1.542,0.0864 2.187,0.2592c0.644,0.1746 1.159,0.468 1.54,0.8892c0.384,0.4158 0.576,1.0044 0.576,1.755c0,0.5148 -0.136,1.017 -0.405,1.5138c-0.268,0.4968 -0.64,0.8334 -1.117,1.0134l0,0.072c0.597,0.1566 1.096,0.459 1.497,0.9072c0.402,0.45 0.6,1.062 0.6,1.836c0,0.7992 -0.202,1.4508 -0.611,1.953c-0.406,0.5022 -0.95,0.8748 -1.629,1.1178c-0.684,0.2466 -1.447,0.3672 -2.293,0.3672l-4.341,-0.0018zm2.635,-7.0056l1.235,0c0.644,0 1.116,-0.126 1.405,-0.3762c0.145,-0.123 0.26,-0.2774 0.336,-0.4515c0.076,-0.174 0.112,-0.3631 0.104,-0.5529c0,-0.4554 -0.148,-0.7776 -0.449,-0.9666c-0.3,-0.189 -0.757,-0.288 -1.38,-0.288l-1.255,0l0,2.6352l0.004,0zm0,4.9626l1.488,0c1.446,0 2.168,-0.5238 2.168,-1.5768c0,-0.5148 -0.18,-0.882 -0.539,-1.1016c-0.356,-0.2214 -0.9,-0.3312 -1.629,-0.3312l-1.488,0l0,3.0096zm8.206,2.043l0,-11.682l4.212,0c0.823,0 1.575,0.1116 2.257,0.333c0.684,0.2196 1.226,0.594 1.631,1.1178c0.407,0.5274 0.608,1.2546 0.608,2.187c0,0.8586 -0.189,1.566 -0.565,2.1222c-0.376,0.5562 -0.882,0.9702 -1.512,1.2438l2.65,4.6764l-2.958,0l-2.239,-4.212l-1.449,0l0,4.212l-2.635,0.0018zm2.635,-6.3054l1.361,0c0.691,0 1.224,-0.144 1.584,-0.4374c0.365,-0.2952 0.547,-0.7272 0.547,-1.2996c0,-0.5706 -0.182,-0.972 -0.545,-1.2006c-0.364,-0.2268 -0.895,-0.342 -1.586,-0.342l-1.361,0l0,3.2796zm13.097,6.5196c-1.053,0 -1.976,-0.243 -2.768,-0.7326c-0.796,-0.4896 -1.415,-1.1916 -1.863,-2.106c-0.45,-0.918 -0.674,-2.0052 -0.674,-3.2706c0,-1.2798 0.224,-2.3634 0.672,-3.2544c0.409,-0.8485 1.057,-1.5591 1.865,-2.0448c0.792,-0.4698 1.715,-0.7074 2.768,-0.7074c1.051,0 1.973,0.2376 2.767,0.7092c0.792,0.4698 1.414,1.1556 1.863,2.0502c0.45,0.8964 0.673,1.9764 0.673,3.2436c0,1.2672 -0.223,2.358 -0.673,3.2688c-0.449,0.9144 -1.068,1.6182 -1.863,2.1078c-0.796,0.4896 -1.719,0.7362 -2.767,0.7362zm0,-2.2752c0.799,0 1.433,-0.3474 1.897,-1.0386c0.468,-0.6912 0.699,-1.6236 0.699,-2.7954c0,-1.1718 -0.234,-2.0862 -0.699,-2.7432c-0.207,-0.3117 -0.49,-0.5655 -0.822,-0.7378c-0.332,-0.1722 -0.703,-0.2572 -1.077,-0.2468c-0.799,0 -1.433,0.3276 -1.897,0.9846c-0.464,0.657 -0.698,1.5714 -0.698,2.7432c0,1.17 0.234,2.1006 0.698,2.7954c0.464,0.6948 1.096,1.0386 1.899,1.0386zm6.019,2.061l3.654,-11.682l3.174,0l3.654,11.682l-2.796,0l-0.716,-2.7756l-3.568,0l-0.716,2.7774l-2.686,-0.0018zm4.23,-5.913l-0.288,1.0746l2.49,0l-0.269,-1.0746c-0.163,-0.6195 -0.321,-1.2406 -0.473,-1.863c-0.162,-0.657 -0.319,-1.2888 -0.473,-1.899l-0.072,0l-0.441,1.908c-0.148,0.6498 -0.306,1.2708 -0.474,1.854zm7.524,5.913l0,-11.682l3.298,0c1.195,0 2.228,0.2034 3.099,0.612c0.872,0.405 1.552,1.035 2.034,1.8882c0.485,0.8514 0.728,1.9476 0.728,3.2886c0,1.3392 -0.24,2.4408 -0.717,3.312c-0.446,0.8414 -1.144,1.5215 -1.998,1.944c-0.853,0.423 -1.854,0.6354 -3,0.6354l-3.444,0.0018zm2.635,-2.1312l0.503,0c0.669,0 1.251,-0.1206 1.746,-0.3564c0.496,-0.2412 0.882,-0.6318 1.157,-1.1826c0.274,-0.549 0.41,-1.2888 0.41,-2.2212c0,-0.9306 -0.138,-1.665 -0.41,-2.196c-0.243,-0.499 -0.652,-0.8975 -1.157,-1.1268c-0.553,-0.232 -1.148,-0.3449 -1.746,-0.3312l-0.504,0l0.001,7.4142zm-52.572,19.3878c-1.014,0 -1.901,-0.2484 -2.661,-0.7506c-0.756,-0.504 -1.348,-1.2132 -1.774,-2.133c-0.423,-0.918 -0.636,-2.0052 -0.636,-3.2598c0,-1.2546 0.22,-2.3346 0.655,-3.2436c0.397,-0.8621 1.031,-1.5929 1.829,-2.106c0.783,-0.495 1.692,-0.7416 2.733,-0.7416c0.799,0 1.458,0.1512 1.98,0.459c0.518,0.3024 0.936,0.621 1.245,0.9576l-0.484,0.5544c-0.316,-0.3465 -0.688,-0.6368 -1.102,-0.8586c-0.435,-0.2394 -0.975,-0.3564 -1.62,-0.3564c-0.894,0 -1.672,0.216 -2.329,0.6534c-0.672,0.4551 -1.198,1.0962 -1.512,1.845c-0.354,0.792 -0.529,1.7406 -0.529,2.8404c0,1.0854 0.167,2.0376 0.504,2.8494c0.333,0.81 0.821,1.44 1.458,1.8828c0.639,0.441 1.406,0.6624 2.304,0.6624c0.536,0 1.042,-0.0774 1.512,-0.234c0.472,-0.153 0.85,-0.3744 1.138,-0.6624l0,-3.6738l-2.83,0l0,-0.6984l3.618,0l0,4.6746c-0.367,0.396 -0.848,0.7182 -1.442,0.9666c-0.597,0.252 -1.28,0.3726 -2.057,0.3726zm6.523,-0.2106l0,-11.808l0.824,0l0,11.0898l5.447,0l0,0.7182l-6.271,0zm12.472,0.2106c-0.945,0 -1.78,-0.252 -2.509,-0.7596c-0.729,-0.5094 -1.301,-1.224 -1.721,-2.142c-0.417,-0.9198 -0.63,-2.007 -0.63,-3.2616c0,-1.242 0.209,-2.3184 0.63,-3.2238c0.416,-0.9072 0.99,-1.6092 1.721,-2.106c0.74,-0.4988 1.617,-0.7577 2.509,-0.7416c0.954,0 1.797,0.2502 2.527,0.7434c0.729,0.495 1.302,1.197 1.721,2.1042c0.418,0.909 0.627,1.9836 0.627,3.2238c0,1.2546 -0.209,2.34 -0.627,3.2616c-0.416,0.918 -0.99,1.6326 -1.721,2.142c-0.742,0.511 -1.626,0.7767 -2.527,0.7596zm0,-0.7506c0.799,0 1.498,-0.225 2.097,-0.6732c0.598,-0.45 1.064,-1.0764 1.397,-1.89c0.335,-0.81 0.502,-1.7622 0.502,-2.8494c0,-1.0854 -0.167,-2.0268 -0.504,-2.8206c-0.333,-0.7956 -0.797,-1.4094 -1.395,-1.845c-0.609,-0.4398 -1.345,-0.6692 -2.097,-0.6534c-0.799,0 -1.501,0.2178 -2.099,0.6534c-0.595,0.4356 -1.063,1.053 -1.396,1.845c-0.333,0.792 -0.501,1.7352 -0.501,2.8206c0,1.0872 0.168,2.0376 0.501,2.8512c0.336,0.81 0.801,1.4436 1.396,1.8882c0.598,0.45 1.296,0.6732 2.099,0.6732zm7.578,0.54l0,-11.808l3.19,0c1.195,0 2.145,0.2304 2.849,0.6912c0.706,0.4608 1.059,1.1844 1.059,2.1762c0,0.6228 -0.155,1.1628 -0.465,1.62c-0.309,0.4626 -0.765,0.7812 -1.361,0.9612l0,0.072c0.764,0.1206 1.381,0.4212 1.845,0.9036c0.465,0.4842 0.699,1.1304 0.699,1.944c0,1.134 -0.4,1.9926 -1.192,2.5704c-0.795,0.5814 -1.861,0.8694 -3.197,0.8694l-3.427,0zm0.825,-6.6132l2.043,0c1.206,0 2.075,-0.198 2.606,-0.5994c0.256,-0.1873 0.463,-0.4346 0.601,-0.7201c0.139,-0.2855 0.206,-0.6007 0.195,-0.9179c0,-0.8388 -0.281,-1.4274 -0.843,-1.7676c-0.563,-0.342 -1.386,-0.5112 -2.473,-0.5112l-2.133,0l0,4.518l0.004,0l0,-0.0018zm0,5.9328l2.381,0c1.172,0 2.097,-0.2196 2.777,-0.6624c0.679,-0.4428 1.021,-1.134 1.021,-2.079c0,-0.846 -0.333,-1.4778 -0.995,-1.89c-0.665,-0.4104 -1.599,-0.6174 -2.807,-0.6174l-2.381,0l0,5.2488l0.004,0zm7.936,0.6804l4.158,-11.808l0.824,0l4.158,11.808l-0.86,0l-1.383,-4.05l-4.676,0l-1.397,4.05l-0.824,0zm3.222,-6.9498l-0.751,2.205l4.192,0l-0.752,-2.205c-0.241,-0.7056 -0.464,-1.3806 -0.684,-2.025c-0.225,-0.6821 -0.433,-1.3693 -0.626,-2.061l-0.072,0c-0.191,0.6927 -0.401,1.38 -0.63,2.061c-0.209,0.6444 -0.436,1.3176 -0.677,2.025zm7.794,6.9498l0,-11.808l0.824,0l0,11.0898l5.447,0l0,0.7182l-6.271,0z"/>
  </g>
  <path id="svg_14" d="m102.98969,0.21649" opacity="NaN" stroke="#000" fill="#fff"/>
 </g>
</svg>